<svg width="16" height="16" viewBox="0 0 16 16" fill="none" xmlns="http://www.w3.org/2000/svg">
<path d="M9.80019 12.2V14.981C9.80019 15.1845 9.80019 15.2863 9.82464 15.3693C9.88223 15.5649 10.0351 15.7178 10.2306 15.7754C10.3137 15.7998 10.4155 15.7998 10.619 15.7998C10.7505 15.7998 10.8776 15.7998 11.0003 15.7996C11.6094 15.7986 12.1134 15.7927 12.5341 15.7573C13.0528 15.7137 13.4981 15.6221 13.9064 15.408C14.5625 15.0638 15.0927 14.5164 15.424 13.8472C15.629 13.4329 15.717 12.981 15.7591 12.4509C15.8002 11.9327 15.8002 11.2903 15.8002 10.4817L15.8002 9.08191C15.8003 8.37816 15.8004 7.91965 15.6918 7.48431C15.5957 7.09922 15.4373 6.73283 15.2228 6.40054C14.9799 6.02426 14.6467 5.71569 14.1393 5.24583L11.4724 2.77488C10.943 2.28445 10.5201 1.8926 10.1522 1.60168C9.7745 1.30302 9.41765 1.07983 9.01039 0.953287C8.35175 0.748644 7.64864 0.748644 6.99001 0.953287C6.58274 1.07983 6.22589 1.30302 5.8482 1.60168C5.48031 1.8926 5.05738 2.28445 4.52805 2.77488L1.86105 5.24583C1.3537 5.71569 1.02051 6.02426 0.777576 6.40054C0.563042 6.73283 0.404661 7.09922 0.308587 7.48431C0.199976 7.91965 0.200066 8.37816 0.200205 9.08191L0.200215 10.4817C0.20021 11.2903 0.200207 11.9327 0.241334 12.4509C0.283409 12.981 0.371356 13.4329 0.576378 13.8472C0.907643 14.5164 1.43788 15.0638 2.09402 15.408C2.50224 15.6221 2.94759 15.7137 3.46634 15.7573C3.88703 15.7927 4.3911 15.7986 5.00017 15.7996C5.12291 15.7998 5.24991 15.7998 5.38135 15.7998C5.58494 15.7998 5.68673 15.7998 5.76974 15.7754C5.96525 15.7178 6.11816 15.5649 6.17575 15.3693C6.2002 15.2863 6.2002 15.1845 6.2002 14.981V12.2C6.2002 11.6034 6.20535 11.4228 6.24109 11.2895C6.35205 10.8753 6.67551 10.5519 7.08962 10.4409C7.22298 10.4052 7.40359 10.4 8.0002 10.4C8.59681 10.4 8.77741 10.4052 8.91078 10.4409C9.32489 10.5519 9.64834 10.8753 9.7593 11.2895C9.79504 11.4228 9.80019 11.6034 9.80019 12.2Z" fill="#5557DB"/>
</svg>
