<svg width="32" height="32" viewBox="0 0 32 32" fill="none" xmlns="http://www.w3.org/2000/svg">
<path d="M12.6667 21.3333V10.6667C12.6667 9.2 13.8534 8 15.3334 8H27.3334V6.66667C27.3334 5.2 26.1334 4 24.6667 4H6.00004C4.52004 4 3.33337 5.2 3.33337 6.66667V25.3333C3.33337 26.8 4.52004 28 6.00004 28H24.6667C26.1334 28 27.3334 26.8 27.3334 25.3333V24H15.3334C13.8534 24 12.6667 22.8 12.6667 21.3333ZM16.6667 10.6667C15.9334 10.6667 15.3334 11.2667 15.3334 12V20C15.3334 20.7333 15.9334 21.3333 16.6667 21.3333H28.6667V10.6667H16.6667ZM20.6667 18C19.56 18 18.6667 17.1067 18.6667 16C18.6667 14.8933 19.56 14 20.6667 14C21.7734 14 22.6667 14.8933 22.6667 16C22.6667 17.1067 21.7734 18 20.6667 18Z" fill="white"/>
</svg>
