<svg width="16" height="16" viewBox="0 0 16 16" fill="none" xmlns="http://www.w3.org/2000/svg">
<path d="M15.1344 6.87203C15.0766 7.05362 14.9688 7.22606 14.8306 7.3577L14.806 7.38118L14.6945 7.4655C13.2278 8.57492 11.5147 9.31291 9.70142 9.6168V9.93794C9.70142 10.725 9.06608 11.3688 8.27522 11.3688H7.72441C6.93355 11.3688 6.29821 10.725 6.29821 9.93794V9.6168C4.48493 9.31291 2.77182 8.57492 1.30515 7.4655L1.19367 7.38118L1.16902 7.3577C1.03079 7.22607 0.923079 7.05362 0.865241 6.87203C0.832287 6.76856 0.818881 6.66449 0.815127 6.5663L0.799822 9.81448C0.799676 10.6687 0.799552 11.3964 0.841497 11.9965C0.885587 12.6272 0.97937 13.1913 1.21516 13.6567C1.58907 14.3947 2.18602 14.9953 2.92103 15.3719C3.37348 15.6038 3.8697 15.7045 4.45816 15.7529C5.03387 15.8002 5.7484 15.8002 6.6513 15.8002H9.34833C10.2512 15.8002 10.9658 15.8002 11.5415 15.7529C12.1299 15.7045 12.6262 15.6038 13.0786 15.3719C13.8136 14.9953 14.4106 14.3947 14.7845 13.6567C15.0203 13.1913 15.114 12.6272 15.1581 11.9965C15.2001 11.3964 15.2 10.6544 15.1998 9.8002L15.1848 6.55657C15.1816 6.65759 15.1684 6.76514 15.1344 6.87203Z" fill="#5557DB"/>
<path d="M7.49821 8.8301C7.49821 8.69939 7.60267 8.59922 7.72441 8.59922H8.27522C8.39696 8.59922 8.50142 8.69939 8.50142 8.8301V9.93794C8.50142 10.0687 8.39696 10.1688 8.27522 10.1688H7.72441C7.60267 10.1688 7.49821 10.0687 7.49821 9.93794V8.8301Z" fill="#5557DB"/>
<path fillRule="evenodd" clipRule="evenodd" d="M7.45864 0.200195C6.22402 0.200195 5.22647 1.1957 5.20654 2.42445C4.9335 2.43129 4.68505 2.44259 4.45816 2.46123C3.8697 2.50958 3.37348 2.61036 2.92103 2.8422C2.18602 3.21882 1.58907 3.81945 1.21516 4.55743C1.07725 4.82963 0.985955 5.11798 0.92463 5.43307C1.02832 5.75996 1.70573 6.27811 2.02908 6.50846C3.30472 7.47338 4.78873 8.12428 6.36088 8.40962C6.53956 7.82611 7.08043 7.39922 7.72441 7.39922H8.27522C8.9192 7.39922 9.46007 7.82611 9.63875 8.40962C11.2109 8.12428 12.6949 7.47338 13.9706 6.50846C14.2939 6.27811 14.9665 5.73569 15.0702 5.4088C15.0089 5.10315 14.9188 4.82263 14.7845 4.55743C14.4106 3.81945 13.8136 3.21882 13.0786 2.8422C12.6262 2.61036 12.1299 2.50958 11.5415 2.46123C11.3199 2.44303 11.0778 2.43183 10.8124 2.42494C10.7927 1.19596 9.79503 0.200195 8.56025 0.200195H7.45864ZM6.40729 2.41397L6.65128 2.41393H9.34835L9.6116 2.41398C9.5867 1.84696 9.12252 1.4002 8.56025 1.4002H7.45864C6.89637 1.4002 6.4322 1.84695 6.40729 2.41397Z" fill="#5557DB"/>
</svg>
