<svg width="34" height="34" viewBox="0 0 34 34" fill="none" xmlns="http://www.w3.org/2000/svg">
<circle cx="16.9997" cy="16.9997" r="14.1667" fill="white" fill-opacity="0.3"/>
<path d="M17.001 10.0315C19.2706 10.0315 19.5394 10.0402 20.4357 10.0811C21.2644 10.1189 21.7145 10.2573 22.014 10.3738C22.4108 10.528 22.6939 10.7121 22.9914 11.0096C23.2888 11.307 23.473 11.5902 23.6272 11.9869C23.7436 12.2864 23.8821 12.7365 23.9199 13.5653C23.9608 14.4615 23.9694 14.7304 23.9694 17C23.9694 19.2696 23.9608 19.5384 23.9199 20.4347C23.8821 21.2634 23.7436 21.7135 23.6272 22.013C23.473 22.4098 23.2888 22.6929 22.9914 22.9903C22.6939 23.2878 22.4108 23.472 22.014 23.6262C21.7145 23.7426 21.2644 23.8811 20.4357 23.9189C19.5395 23.9597 19.2707 23.9684 17.001 23.9684C14.7312 23.9684 14.4624 23.9597 13.5662 23.9189C12.7375 23.8811 12.2874 23.7426 11.9879 23.6262C11.5912 23.472 11.308 23.2878 11.0106 22.9903C10.7132 22.6929 10.5289 22.4098 10.3747 22.013C10.2583 21.7135 10.1199 21.2634 10.0821 20.4347C10.0412 19.5384 10.0325 19.2696 10.0325 17C10.0325 14.7304 10.0412 14.4615 10.0821 13.5653C10.1199 12.7365 10.2583 12.2864 10.3747 11.9869C10.5289 11.5902 10.7131 11.307 11.0106 11.0096C11.308 10.7121 11.5912 10.528 11.9879 10.3738C12.2874 10.2573 12.7375 10.1189 13.5662 10.0811C14.4625 10.0402 14.7314 10.0315 17.001 10.0315ZM17.001 8.5C14.6925 8.5 14.4031 8.50978 13.4964 8.55115C12.5917 8.59242 11.9738 8.73612 11.4332 8.94622C10.8742 9.16344 10.4002 9.45409 9.92761 9.92662C9.45507 10.3992 9.16442 10.8732 8.94723 11.4322C8.73709 11.9728 8.59339 12.5907 8.55213 13.4954C8.51076 14.4021 8.50098 14.6915 8.50098 17C8.50098 19.3084 8.51076 19.5979 8.55213 20.5045C8.59339 21.4092 8.73709 22.0271 8.94723 22.5678C9.16442 23.1267 9.45507 23.6007 9.92761 24.0733C10.4002 24.5459 10.8742 24.8365 11.4332 25.0537C11.9738 25.2638 12.5917 25.4075 13.4964 25.4488C14.4031 25.4902 14.6925 25.4999 17.001 25.4999C19.3094 25.4999 19.5989 25.4902 20.5055 25.4488C21.4102 25.4075 22.0281 25.2638 22.5688 25.0537C23.1277 24.8365 23.6018 24.5459 24.0743 24.0733C24.5469 23.6007 24.8375 23.1267 25.0548 22.5678C25.2649 22.0271 25.4086 21.4092 25.4498 20.5045C25.4912 19.5979 25.501 19.3084 25.501 17C25.501 14.6915 25.4912 14.4021 25.4498 13.4954C25.4086 12.5907 25.2649 11.9728 25.0548 11.4322C24.8375 10.8732 24.5469 10.3992 24.0743 9.92662C23.6018 9.45409 23.1277 9.16344 22.5688 8.94622C22.0281 8.73612 21.4102 8.59242 20.5055 8.55115C19.5989 8.50978 19.3094 8.5 17.001 8.5Z" fill="white"/>
<path d="M17.0036 12.6387C14.5929 12.6387 12.6387 14.5929 12.6387 17.0035C12.6387 19.4142 14.5929 21.3684 17.0036 21.3684C19.4142 21.3684 21.3684 19.4142 21.3684 17.0035C21.3684 14.5929 19.4142 12.6387 17.0036 12.6387ZM17.0036 19.8368C15.4387 19.8368 14.1702 18.5683 14.1702 17.0035C14.1702 15.4387 15.4387 14.1702 17.0036 14.1702C18.5683 14.1702 19.8369 15.4387 19.8369 17.0035C19.8369 18.5683 18.5683 19.8368 17.0036 19.8368Z" fill="white"/>
<path d="M22.5615 12.4634C22.5615 13.0267 22.1048 13.4834 21.5415 13.4834C20.9782 13.4834 20.5215 13.0267 20.5215 12.4634C20.5215 11.9 20.9782 11.4434 21.5415 11.4434C22.1048 11.4434 22.5615 11.9 22.5615 12.4634Z" fill="white"/>
</svg>
