<svg width="30" height="19" viewBox="0 0 30 19" fill="none" xmlns="http://www.w3.org/2000/svg">
<path d="M13.3333 0H16V18.6667H13.3333V0ZM5.33333 9.33333C6.8 9.33333 8 8.13333 8 6.66667C8 5.2 6.8 4 5.33333 4C3.86667 4 2.66667 5.2 2.66667 6.66667C2.66667 8.13333 3.86667 9.33333 5.33333 9.33333ZM9.04 11.44C7.90667 10.9467 6.65333 10.6667 5.33333 10.6667C4.01333 10.6667 2.76 10.9467 1.62667 11.44C0.64 11.8667 0 12.8267 0 13.9067V14.6667H10.6667V13.9067C10.6667 12.8267 10.0267 11.8667 9.04 11.44ZM24 9.33333C25.4667 9.33333 26.6667 8.13333 26.6667 6.66667C26.6667 5.2 25.4667 4 24 4C22.5333 4 21.3333 5.2 21.3333 6.66667C21.3333 8.13333 22.5333 9.33333 24 9.33333ZM27.7067 11.44C26.5733 10.9467 25.32 10.6667 24 10.6667C22.68 10.6667 21.4267 10.9467 20.2933 11.44C19.3067 11.8667 18.6667 12.8267 18.6667 13.9067V14.6667H29.3333V13.9067C29.3333 12.8267 28.6933 11.8667 27.7067 11.44Z" fill="white"/>
</svg>
