<svg width="18" height="16" viewBox="0 0 18 16" fill="none" xmlns="http://www.w3.org/2000/svg">
<path fillRule="evenodd" clipRule="evenodd" d="M15.1064 1.25758C14.6226 1.01111 14.0904 0.902923 13.4529 0.850845C12.8282 0.799797 12.0518 0.799801 11.0663 0.799805L7.54345 0.799805C6.54799 0.799803 5.6259 0.799802 4.856 0.85013C4.10285 0.899362 3.39759 1.0004 2.89285 1.25758C2.10257 1.66025 1.46005 2.30276 1.05738 3.09304C0.810914 3.57677 0.702728 4.10906 0.650649 4.74647C0.599602 5.37126 0.599605 6.14763 0.599609 7.13316V8.86645C0.599605 9.85198 0.599602 10.6283 0.650649 11.2531C0.702728 11.8905 0.810914 12.4228 1.05738 12.9066C1.46005 13.6968 2.10257 14.3394 2.89285 14.742C3.39759 14.9992 4.10285 15.1002 4.856 15.1495C5.6259 15.1998 6.548 15.1998 7.54347 15.1998H11.0663C12.0518 15.1998 12.8282 15.1998 13.4529 15.1488C14.0904 15.0967 14.6226 14.9885 15.1064 14.742C15.8967 14.3394 16.5392 13.6968 16.9418 12.9066C17.1883 12.4228 17.2965 11.8905 17.3486 11.2531C17.3996 10.6284 17.3996 9.85199 17.3996 8.86647V7.13314C17.3996 6.14762 17.3996 5.37126 17.3486 4.74647C17.2965 4.10906 17.1883 3.57677 16.9418 3.09304C16.5392 2.30276 15.8967 1.66025 15.1064 1.25758ZM4.00038 4.06698C4.18419 3.79127 4.55671 3.71676 4.83243 3.90057L7.33551 5.56929C7.83034 5.89918 8.16213 6.11939 8.43666 6.2622C8.69817 6.39824 8.85794 6.43647 8.99961 6.43647C9.14127 6.43647 9.30105 6.39824 9.56256 6.2622C9.83708 6.11939 10.1689 5.89918 10.6637 5.56929L13.1668 3.90057C13.4425 3.71676 13.815 3.79127 13.9988 4.06698C14.1827 4.3427 14.1081 4.71522 13.8324 4.89903L11.3027 6.58549C10.8414 6.89305 10.4556 7.15031 10.1164 7.32677C9.75765 7.51338 9.40294 7.63647 8.99961 7.63647C8.59628 7.63647 8.24157 7.51338 7.88285 7.32677C7.54366 7.15031 7.15779 6.89306 6.69648 6.58549L4.16679 4.89903C3.89107 4.71522 3.81657 4.3427 4.00038 4.06698Z" fill="#5557DB"/>
</svg>
