<svg width="14" height="17" viewBox="0 0 14 17" fill="none" xmlns="http://www.w3.org/2000/svg">
<path d="M5.80039 9.47967C5.80039 8.92152 6.29799 8.39967 7.00039 8.39967C7.70279 8.39967 8.20039 8.92152 8.20039 9.47967C8.20039 9.6967 8.12951 9.90055 8.0022 10.0737L7.99851 10.0767C7.98294 10.0896 7.93366 10.1303 7.90969 10.1513C7.87189 10.1845 7.80662 10.244 7.74841 10.323C7.69246 10.399 7.60039 10.5501 7.60039 10.7581V11.0997C7.60039 11.2654 7.46608 11.3997 7.30039 11.3997H6.70039C6.53471 11.3997 6.40039 11.2654 6.40039 11.0997V10.7581C6.40039 10.5501 6.30832 10.399 6.25237 10.323C6.19417 10.244 6.12889 10.1845 6.09109 10.1513C6.0671 10.1303 6.01777 10.0895 6.00223 10.0767L5.99858 10.0737C5.87127 9.90055 5.80039 9.6967 5.80039 9.47967Z" fill="#5557DB"/>
<path fillRule="evenodd" clipRule="evenodd" d="M7.00039 0.599667L6.91784 0.599638C6.44061 0.599379 6.08622 0.599187 5.77923 0.681445C4.951 0.903366 4.30409 1.55028 4.08217 2.3785C3.99991 2.68549 4.0001 3.03989 4.00036 3.51712L4.00039 3.59967V3.68631C3.51242 3.74804 3.08697 3.85702 2.69363 4.05744C1.90335 4.46011 1.26083 5.10263 0.858163 5.89291C0.611695 6.37663 0.503509 6.90892 0.451431 7.54633C0.400383 8.17112 0.400387 8.94749 0.400391 9.93302V10.4663C0.400387 11.4518 0.400383 12.2282 0.451431 12.853C0.503509 13.4904 0.611695 14.0227 0.858163 14.5064C1.26083 15.2967 1.90335 15.9392 2.69363 16.3419C3.17735 16.5884 3.70965 16.6965 4.34706 16.7486C4.97184 16.7997 5.74821 16.7997 6.73373 16.7997H7.26705C8.25257 16.7997 9.02894 16.7997 9.65372 16.7486C10.2911 16.6965 10.8234 16.5884 11.3072 16.3419C12.0974 15.9392 12.74 15.2967 13.1426 14.5064C13.3891 14.0227 13.4973 13.4904 13.5494 12.853C13.6004 12.2282 13.6004 11.4518 13.6004 10.4663V9.933C13.6004 8.94748 13.6004 8.17112 13.5494 7.54633C13.4973 6.90892 13.3891 6.37663 13.1426 5.89291C12.74 5.10263 12.0974 4.46011 11.3072 4.05744C10.9138 3.85702 10.4884 3.74804 10.0004 3.68631V3.59967L10.0004 3.51712C10.0007 3.03989 10.0009 2.68549 9.91861 2.3785C9.69669 1.55028 9.04978 0.903366 8.22156 0.681445C7.91457 0.599187 7.56017 0.599379 7.08294 0.599638L7.00039 0.599667ZM6.73374 3.59967H7.26704C7.84658 3.59966 8.3538 3.59966 8.80039 3.61004V3.59967C8.80039 3.00306 8.79524 2.82245 8.7595 2.68908C8.64854 2.27497 8.32508 1.95152 7.91097 1.84056C7.77761 1.80482 7.597 1.79967 7.00039 1.79967C6.40378 1.79967 6.22317 1.80482 6.08981 1.84056C5.6757 1.95152 5.35224 2.27497 5.24128 2.68908C5.20554 2.82245 5.20039 3.00306 5.20039 3.59967V3.61004C5.64699 3.59966 6.1542 3.59966 6.73374 3.59967ZM4.60039 9.47967C4.60039 8.18214 5.71457 7.19967 7.00039 7.19967C8.28621 7.19967 9.40039 8.18214 9.40039 9.47967C9.40039 9.9885 9.2245 10.4565 8.93317 10.8319C8.9008 10.8737 8.86835 10.9068 8.84464 10.9295C8.82914 10.9444 8.81399 10.9581 8.80039 10.9699V11.5797C8.80039 12.143 8.34372 12.5997 7.78039 12.5997H6.22039C5.65706 12.5997 5.20039 12.143 5.20039 11.5797V10.9699C5.18679 10.9581 5.17164 10.9444 5.15615 10.9295C5.13243 10.9068 5.09998 10.8737 5.06761 10.8319C4.77628 10.4565 4.60039 9.9885 4.60039 9.47967Z" fill="#5557DB"/>
<path fillRule="evenodd" clipRule="evenodd" d="M5.80039 9.47967C5.80039 8.92152 6.29799 8.39967 7.00039 8.39967C7.70279 8.39967 8.20039 8.92152 8.20039 9.47967C8.20039 9.6967 8.12951 9.90055 8.0022 10.0737L7.99851 10.0767C7.98294 10.0896 7.93366 10.1303 7.90969 10.1513C7.87189 10.1845 7.80662 10.244 7.74841 10.323C7.69246 10.399 7.60039 10.5501 7.60039 10.7581V11.0997C7.60039 11.2654 7.46608 11.3997 7.30039 11.3997H6.70039C6.53471 11.3997 6.40039 11.2654 6.40039 11.0997V10.7581C6.40039 10.5501 6.30832 10.399 6.25237 10.323C6.19417 10.244 6.12889 10.1845 6.09109 10.1513C6.0671 10.1303 6.01777 10.0895 6.00223 10.0767L5.99858 10.0737C5.87127 9.90055 5.80039 9.6967 5.80039 9.47967Z" fill="#5557DB"/>
</svg>
