<svg width="12" height="16" viewBox="0 0 12 16" fill="none" xmlns="http://www.w3.org/2000/svg">
<path d="M5.19574 1.68842C4.55415 0.859309 3.42457 0.57872 2.45677 0.981399C2.32137 1.03774 2.17991 1.11786 1.98538 1.22804L1.96517 1.23949L1.95407 1.24577L1.94325 1.25252C1.51266 1.52114 1.2301 1.93059 1.0431 2.34287C0.855322 2.75687 0.746079 3.21227 0.682823 3.63103C0.565905 4.40504 0.591795 5.16001 0.641969 5.47319C0.642931 5.48712 0.644222 5.5031 0.645949 5.52116C0.651272 5.5768 0.660738 5.6521 0.677526 5.7479C0.711099 5.93948 0.773947 6.21301 0.891496 6.57527C1.12644 7.29933 1.58069 8.38031 2.4598 9.87379C3.33936 11.368 4.10988 12.3675 4.66962 13.0002C4.94944 13.3164 5.17638 13.5408 5.33764 13.6893C5.41826 13.7635 5.48243 13.8187 5.52854 13.857C5.5516 13.8761 5.57013 13.8909 5.58395 13.9018L5.59873 13.9133C6.00247 14.2383 6.67745 14.6709 7.43436 14.9416C8.1803 15.2085 9.12823 15.3603 9.97046 14.9295L9.9818 14.9237L9.99288 14.9174L10.0219 14.901C10.2109 14.794 10.3512 14.7146 10.4673 14.6287C11.3132 14.0032 11.6342 12.8894 11.2195 11.9218C11.1628 11.7896 11.0816 11.6516 10.9746 11.4699L10.9574 11.4407L10.7729 11.1273L10.7582 11.1022C10.572 10.786 10.4233 10.5333 10.2796 10.3422C10.0903 10.0905 9.83841 9.94394 9.64542 9.85133C9.37884 9.72339 9.08217 9.67222 8.81822 9.64817C8.55007 9.62374 8.2658 9.62374 8.01047 9.62495L7.94441 9.62528C7.70485 9.62651 7.49096 9.62761 7.29433 9.6156C7.07665 9.60229 6.92954 9.57488 6.83601 9.53887C6.78585 9.51956 6.73623 9.49675 6.68729 9.47048C6.63567 9.44275 6.60614 9.4225 6.58758 9.40683C6.43215 9.27552 6.02541 8.89709 5.6473 8.25475C5.20487 7.50312 5.14471 6.97474 5.14004 6.92667C5.13248 6.78586 5.14623 6.64539 5.17988 6.50836C5.2058 6.40279 5.26665 6.2592 5.36907 6.06617C5.44014 5.93222 5.51745 5.79908 5.60185 5.65375C5.63963 5.58869 5.67882 5.52119 5.71952 5.45008C5.84391 5.23271 5.97698 4.99013 6.07794 4.74573C6.17721 4.50543 6.26453 4.21934 6.26001 3.91959C6.25799 3.78626 6.24586 3.59623 6.17116 3.39916C6.07563 3.14715 5.91002 2.86592 5.70021 2.50965L5.67354 2.46436L5.48891 2.15114L5.46896 2.11724C5.36374 1.93834 5.28324 1.80149 5.19574 1.68842Z" fill="#5557DB"/>
</svg>
