<svg width="14" height="16" viewBox="0 0 14 16" fill="none" xmlns="http://www.w3.org/2000/svg">
<path d="M5.60039 5.92738C5.60039 5.10882 6.24301 4.47422 7.00039 4.47422C7.75777 4.47422 8.40039 5.10882 8.40039 5.92738C8.40039 6.74595 7.75777 7.38055 7.00039 7.38055C6.24301 7.38055 5.60039 6.74595 5.60039 5.92738Z" fill="#5557DB"/>
<path fillRule="evenodd" clipRule="evenodd" d="M5.65888 14.7852C5.94513 15.0452 6.18407 15.2533 6.35211 15.397L6.57182 15.6206C6.80709 15.8601 7.1937 15.8601 7.42896 15.6206L7.64867 15.397C7.81671 15.2533 8.05565 15.0452 8.3419 14.7852C8.91362 14.266 9.67788 13.5362 10.4441 12.6968C11.2082 11.8597 11.9865 10.9003 12.577 9.92171C13.1601 8.95535 13.6004 7.90503 13.6004 6.90099C13.6004 3.21139 10.6565 0.200195 7.00039 0.200195C3.34425 0.200195 0.400391 3.21139 0.400391 6.90099C0.400391 7.90503 0.840686 8.95535 1.4238 9.92171C2.01429 10.9003 2.79258 11.8597 3.5567 12.6968C4.3229 13.5362 5.08716 14.266 5.65888 14.7852ZM4.40039 5.92738C4.40039 4.47989 5.54863 3.27749 7.00039 3.27749C8.45215 3.27749 9.60039 4.47989 9.60039 5.92738C9.60039 7.37488 8.45215 8.57728 7.00039 8.57728C5.54863 8.57728 4.40039 7.37488 4.40039 5.92738Z" fill="#5557DB"/>
</svg>
