<svg width="32" height="32" viewBox="0 0 32 32" fill="none" xmlns="http://www.w3.org/2000/svg">
<path d="M22.6666 2.66663H9.33329C7.86663 2.66663 6.66663 3.86663 6.66663 5.33329V7.99996C6.66663 9.46663 7.86663 10.6666 9.33329 10.6666H22.6666C24.1333 10.6666 25.3333 9.46663 25.3333 7.99996V5.33329C25.3333 3.86663 24.1333 2.66663 22.6666 2.66663ZM22 7.99996H9.99996C9.62663 7.99996 9.33329 7.70663 9.33329 7.33329V5.99996C9.33329 5.62663 9.62663 5.33329 9.99996 5.33329H22C22.3733 5.33329 22.6666 5.62663 22.6666 5.99996V7.33329C22.6666 7.70663 22.3733 7.99996 22 7.99996ZM26.6666 29.3333H5.33329C3.86663 29.3333 2.66663 28.1333 2.66663 26.6666V25.3333H29.3333V26.6666C29.3333 28.1333 28.1333 29.3333 26.6666 29.3333ZM24.7066 13.5866C24.28 12.6266 23.32 12 22.2666 12H9.73329C8.67996 12 7.71996 12.6266 7.29329 13.5866L2.66663 24H29.3333L24.7066 13.5866ZM12.6666 21.3333H11.3333C10.96 21.3333 10.6666 21.04 10.6666 20.6666C10.6666 20.2933 10.96 20 11.3333 20H12.6666C13.04 20 13.3333 20.2933 13.3333 20.6666C13.3333 21.04 13.04 21.3333 12.6666 21.3333ZM12.6666 18.6666H11.3333C10.96 18.6666 10.6666 18.3733 10.6666 18C10.6666 17.6266 10.96 17.3333 11.3333 17.3333H12.6666C13.04 17.3333 13.3333 17.6266 13.3333 18C13.3333 18.3733 13.04 18.6666 12.6666 18.6666ZM12.6666 16H11.3333C10.96 16 10.6666 15.7066 10.6666 15.3333C10.6666 14.96 10.96 14.6666 11.3333 14.6666H12.6666C13.04 14.6666 13.3333 14.96 13.3333 15.3333C13.3333 15.7066 13.04 16 12.6666 16ZM16.6666 21.3333H15.3333C14.96 21.3333 14.6666 21.04 14.6666 20.6666C14.6666 20.2933 14.96 20 15.3333 20H16.6666C17.04 20 17.3333 20.2933 17.3333 20.6666C17.3333 21.04 17.04 21.3333 16.6666 21.3333ZM16.6666 18.6666H15.3333C14.96 18.6666 14.6666 18.3733 14.6666 18C14.6666 17.6266 14.96 17.3333 15.3333 17.3333H16.6666C17.04 17.3333 17.3333 17.6266 17.3333 18C17.3333 18.3733 17.04 18.6666 16.6666 18.6666ZM16.6666 16H15.3333C14.96 16 14.6666 15.7066 14.6666 15.3333C14.6666 14.96 14.96 14.6666 15.3333 14.6666H16.6666C17.04 14.6666 17.3333 14.96 17.3333 15.3333C17.3333 15.7066 17.04 16 16.6666 16ZM20.6666 21.3333H19.3333C18.96 21.3333 18.6666 21.04 18.6666 20.6666C18.6666 20.2933 18.96 20 19.3333 20H20.6666C21.04 20 21.3333 20.2933 21.3333 20.6666C21.3333 21.04 21.04 21.3333 20.6666 21.3333ZM20.6666 18.6666H19.3333C18.96 18.6666 18.6666 18.3733 18.6666 18C18.6666 17.6266 18.96 17.3333 19.3333 17.3333H20.6666C21.04 17.3333 21.3333 17.6266 21.3333 18C21.3333 18.3733 21.04 18.6666 20.6666 18.6666ZM20.6666 16H19.3333C18.96 16 18.6666 15.7066 18.6666 15.3333C18.6666 14.96 18.96 14.6666 19.3333 14.6666H20.6666C21.04 14.6666 21.3333 14.96 21.3333 15.3333C21.3333 15.7066 21.04 16 20.6666 16Z" fill="white"/>
</svg>
