<svg width="24" height="27" viewBox="0 0 24 27" fill="none" xmlns="http://www.w3.org/2000/svg">
<path d="M17.3333 5.33333V13.3333C17.3333 14.8 18.5333 16 20 16H21.3333V25.3333C21.3333 26.0667 21.9333 26.6667 22.6667 26.6667C23.4 26.6667 24 26.0667 24 25.3333V1.50667C24 0.64 23.1867 1.19209e-07 22.3467 0.2C19.4667 0.906667 17.3333 3.34667 17.3333 5.33333ZM10.6667 9.33333H8V1.33333C8 0.6 7.4 0 6.66667 0C5.93333 0 5.33333 0.6 5.33333 1.33333V9.33333H2.66667V1.33333C2.66667 0.6 2.06667 0 1.33333 0C0.6 0 0 0.6 0 1.33333V9.33333C0 12.28 2.38667 14.6667 5.33333 14.6667V25.3333C5.33333 26.0667 5.93333 26.6667 6.66667 26.6667C7.4 26.6667 8 26.0667 8 25.3333V14.6667C10.9467 14.6667 13.3333 12.28 13.3333 9.33333V1.33333C13.3333 0.6 12.7333 0 12 0C11.2667 0 10.6667 0.6 10.6667 1.33333V9.33333Z" fill="white"/>
</svg>
