<svg width="27" height="24" viewBox="0 0 27 24" fill="none" xmlns="http://www.w3.org/2000/svg">
<path d="M26.5303 6.52L25.1303 2.02667C24.837 0.826667 23.797 0 22.5837 0H4.06367C2.86367 0 1.81034 0.84 1.53034 2.02667L0.130341 6.52C-0.482992 9.14667 1.26367 10.6667 1.33034 10.7467V21.3333C1.33034 22.8 2.53034 24 3.99701 24H22.6637C24.1303 24 25.3303 22.8 25.3303 21.3333V10.7467C26.8237 9.25333 26.7837 7.53333 26.5303 6.52ZM14.6637 2.66667H17.277L17.997 7.36C18.117 8.30667 17.477 9.33333 16.2903 9.33333C15.397 9.33333 14.6637 8.54667 14.6637 7.58667V2.66667ZM5.91701 7.81333C5.81034 8.68 5.11701 9.33333 4.30367 9.33333C3.06367 9.33333 2.50367 8.04 2.71701 7.14667L4.06367 2.66667H6.69034L5.91701 7.81333ZM11.997 7.58667C11.997 8.54667 11.2637 9.33333 10.277 9.33333C9.27701 9.33333 8.54367 8.4 8.65034 7.36L9.38367 2.66667H11.997V7.58667ZM22.357 9.33333C21.5437 9.33333 20.837 8.68 20.7437 7.81333L19.9703 2.66667L22.5437 2.65333L23.9437 7.14667C24.157 8.04 23.6103 9.33333 22.357 9.33333Z" fill="white"/>
</svg>
