<svg width="34" height="34" viewBox="0 0 34 34" fill="none" xmlns="http://www.w3.org/2000/svg">
<circle cx="17.0007" cy="16.9997" r="14.1667" fill="white" fill-opacity="0.3"/>
<path fillRule="evenodd" clipRule="evenodd" d="M13.2991 10.1178C13.2991 10.9997 12.6276 11.7134 11.5774 11.7134C10.5682 11.7134 9.89668 10.9997 9.91746 10.1178C9.89668 9.19295 10.5682 8.5 11.5976 8.5C12.6276 8.5 13.279 9.19295 13.2991 10.1178ZM10.0019 23.2468V12.974H13.1945V23.2462H10.0019V23.2468Z" fill="white"/>
<path fillRule="evenodd" clipRule="evenodd" d="M15.7534 16.2527C15.7534 14.9714 15.7112 13.879 15.6689 12.9757H18.4421L18.5895 14.383H18.6525C19.0727 13.7316 20.1228 12.7451 21.8244 12.7451C23.9246 12.7451 25.5002 14.1317 25.5002 17.1555V23.2485H22.3075V17.5555C22.3075 16.2313 21.8458 15.3286 20.6904 15.3286C19.8078 15.3286 19.2831 15.9378 19.0733 16.5255C18.9889 16.7359 18.9473 17.0295 18.9473 17.3243V23.2485H15.7547V16.2527H15.7534Z" fill="white"/>
</svg>
